<svg width="130" height="107" viewBox="0 0 130 107" fill="none" xmlns="http://www.w3.org/2000/svg">
<path d="M37 6L1.85857 14.2356C19.8955 41.4463 25.6223 61.3748 34.9825 101.821L37 6Z" fill="#2D2D2D"/>
<path d="M60.9376 75.0158L110.063 75.0158C113.343 75.0158 116.001 77.6741 116.001 80.9533C116.001 84.2325 113.343 86.8909 110.063 86.8909L60.9376 86.8909C57.6584 86.8909 55 84.2325 55 80.9533C55 77.6741 57.6584 75.0158 60.9376 75.0158Z" fill="#2680EB"/>
<path d="M60.9388 48.5077L95.3592 48.5077C98.639 48.5077 101.298 51.1665 101.298 54.4464C101.298 57.7262 98.639 60.385 95.3592 60.385L60.9388 60.385C57.659 60.385 55.0001 57.7262 55.0001 54.4464C55.0001 51.1665 57.659 48.5077 60.9388 48.5077Z" fill="#2680EB"/>
<path d="M60.9394 21.9999L115.718 21.9999C118.998 21.9999 121.656 24.6587 121.656 27.9386C121.656 31.2184 118.998 33.8772 115.718 33.8772L60.9394 33.8772C57.6596 33.8772 55.0007 31.2184 55.0007 27.9386C55.0007 24.6587 57.6596 21.9999 60.9394 21.9999Z" fill="#2680EB"/>
<path d="M39.4082 2.01025L11.6584 6.50681C24.1434 34.7815 27.8537 57.6587 32.9999 98.9999L39.4082 2.01025Z" fill="#FBEA00"/>
<path d="M125.008 3.35987e-06C127.493 1.50427e-06 129.508 2.01472 129.508 4.5C129.508 6.98528 127.493 9 125.008 9L53.4682 9C47.9453 9 43.4682 13.4772 43.4682 19L43.4682 89C43.4682 94.5228 47.9453 99 53.4682 99L125.476 99C127.685 99 129.508 100.791 129.508 103C129.508 105.209 127.717 107 125.508 107L42.451 107C36.9282 107 32.451 102.523 32.451 97L32.451 10.0001C32.451 4.47721 36.9281 6.91234e-05 42.451 6.49999e-05L125.008 3.35987e-06Z" fill="#2D2D2D"/>
</svg>
