<svg width="63" height="63" viewBox="0 0 63 63" fill="none" xmlns="http://www.w3.org/2000/svg">
<path d="M31.291 52.15C19.6193 52.15 10.1826 42.7133 10.1826 31.0417C10.1826 19.37 19.6193 9.93335 31.291 9.93335C42.9626 9.93335 52.3993 19.37 52.3993 31.0417C52.3993 42.7133 42.9626 52.15 31.291 52.15ZM31.291 12.4167C20.9851 12.4167 12.666 20.7358 12.666 31.0417C12.666 41.3475 20.9851 49.6667 31.291 49.6667C41.5968 49.6667 49.916 41.3475 49.916 31.0417C49.916 20.7358 41.5968 12.4167 31.291 12.4167Z" fill="#34166C"/>
<path d="M35 28V38H27V28H35ZM33.5 22H28.5L27.5 23H24V25H38V23H34.5L33.5 22ZM37 26H25V38C25 39.1 25.9 40 27 40H35C36.1 40 37 39.1 37 38V26Z" fill="#34166C"/>
</svg>
