<svg xmlns="http://www.w3.org/2000/svg" width="25" height="24" viewBox="0 0 25 24" fill="none">
<g clip-path="url(#clip0_580_1579)">
<path d="M24.4886 12.2261C24.4886 11.2429 24.4069 10.5253 24.2302 9.78125H12.7391V14.2192H19.4841C19.3482 15.3221 18.6138 16.9831 16.9819 18.0992L16.959 18.2478L20.5923 20.998L20.844 21.0225C23.1558 18.9363 24.4886 15.8669 24.4886 12.2261Z" fill="#4285F4"/>
<path d="M12.7391 23.9178C16.0436 23.9178 18.8177 22.8548 20.844 21.0211L16.9819 18.0978C15.9484 18.8021 14.5613 19.2937 12.7391 19.2937C9.50254 19.2937 6.75557 17.2076 5.77636 14.3242L5.63282 14.3361L1.85489 17.193L1.80548 17.3271C3.81811 21.2337 7.9522 23.9178 12.7391 23.9178Z" fill="#34A853"/>
<path d="M5.77634 14.3228C5.51797 13.5787 5.36844 12.7814 5.36844 11.9576C5.36844 11.1338 5.51797 10.3365 5.76275 9.59244L5.75591 9.43397L1.93062 6.53125L1.80547 6.58942C0.975969 8.21052 0.5 10.0309 0.5 11.9576C0.5 13.8843 0.975969 15.7047 1.80547 17.3258L5.77634 14.3228Z" fill="#FBBC05"/>
<path d="M12.7391 4.62403C15.0373 4.62403 16.5875 5.59402 17.4715 6.40461L20.9256 3.10928C18.8042 1.1826 16.0436 0 12.7391 0C7.9522 0 3.81811 2.68406 1.80548 6.59056L5.76276 9.59359C6.75557 6.7102 9.50254 4.62403 12.7391 4.62403Z" fill="#EB4335"/>
</g>
<defs>
<clipPath id="clip0_580_1579">
<rect width="24" height="24" fill="white" transform="translate(0.5)"/>
</clipPath>
</defs>
</svg>