<svg width="49" height="50" viewBox="0 0 69 70" fill="none" xmlns="http://www.w3.org/2000/svg">
<path d="M34.6948 69.1523C15.7266 69.1523 0.390625 53.8163 0.390625 34.8481C0.390625 15.8799 15.7266 0.543945 34.6948 0.543945C53.663 0.543945 68.999 15.8799 68.999 34.8481C68.999 53.8163 53.663 69.1523 34.6948 69.1523ZM34.6948 4.57973C17.9463 4.57973 4.42641 18.0996 4.42641 34.8481C4.42641 51.5966 17.9463 65.1165 34.6948 65.1165C51.4433 65.1165 64.9632 51.5966 64.9632 34.8481C64.9632 18.0996 51.4433 4.57973 34.6948 4.57973Z" fill="#34166C"/>
<path d="M35.9335 20.5439C37.621 20.5484 38.4775 20.5574 39.217 20.5784L39.508 20.5889C39.844 20.6009 40.1755 20.6159 40.576 20.6339C42.172 20.7089 43.261 20.9609 44.2165 21.3314C45.2065 21.7124 46.0405 22.2284 46.8745 23.0609C47.6372 23.8108 48.2274 24.7178 48.604 25.7189C48.9745 26.6744 49.2265 27.7634 49.3015 29.3609C49.3195 29.7599 49.3345 30.0914 49.3465 30.4289L49.3555 30.7199C49.378 31.4579 49.387 32.3144 49.39 34.0019L49.3915 35.1209V37.0859C49.3952 38.1801 49.3837 39.2742 49.357 40.3679L49.348 40.6589C49.336 40.9964 49.321 41.3279 49.303 41.7269C49.228 43.3244 48.973 44.4119 48.604 45.3689C48.2285 46.3706 47.6382 47.2779 46.8745 48.0269C46.1244 48.7894 45.2175 49.3796 44.2165 49.7564C43.261 50.1269 42.172 50.3789 40.576 50.4539C40.2201 50.4707 39.8641 50.4857 39.508 50.4989L39.217 50.5079C38.4775 50.5289 37.621 50.5394 35.9335 50.5424L34.8145 50.5439H32.851C31.7564 50.5477 30.6618 50.5362 29.5675 50.5094L29.2765 50.5004C28.9204 50.487 28.5644 50.4715 28.2085 50.4539C26.6125 50.3789 25.5235 50.1269 24.5665 49.7564C23.5655 49.3805 22.6588 48.7902 21.91 48.0269C21.1466 47.2774 20.5558 46.3703 20.179 45.3689C19.8085 44.4134 19.5565 43.3244 19.4815 41.7269C19.4648 41.371 19.4498 41.015 19.4365 40.6589L19.429 40.3679C19.4013 39.2742 19.3888 38.1801 19.3915 37.0859V34.0019C19.3873 32.9078 19.3983 31.8137 19.4245 30.7199L19.435 30.4289C19.447 30.0914 19.462 29.7599 19.48 29.3609C19.555 27.7634 19.807 26.6759 20.1775 25.7189C20.5542 24.7168 21.1461 23.8095 21.9115 23.0609C22.6601 22.2982 23.5662 21.7079 24.5665 21.3314C25.5235 20.9609 26.611 20.7089 28.2085 20.6339C28.6075 20.6159 28.9405 20.6009 29.2765 20.5889L29.5675 20.5799C30.6613 20.5533 31.7554 20.5418 32.8495 20.5454L35.9335 20.5439ZM34.3915 28.0439C32.4024 28.0439 30.4947 28.8341 29.0882 30.2406C27.6817 31.6472 26.8915 33.5548 26.8915 35.5439C26.8915 37.5331 27.6817 39.4407 29.0882 40.8472C30.4947 42.2538 32.4024 43.0439 34.3915 43.0439C36.3806 43.0439 38.2883 42.2538 39.6948 40.8472C41.1013 39.4407 41.8915 37.5331 41.8915 35.5439C41.8915 33.5548 41.1013 31.6472 39.6948 30.2406C38.2883 28.8341 36.3806 28.0439 34.3915 28.0439ZM34.3915 31.0439C34.9824 31.0438 35.5676 31.1601 36.1136 31.3862C36.6596 31.6123 37.1558 31.9436 37.5737 32.3614C37.9916 32.7792 38.3232 33.2753 38.5494 33.8212C38.7756 34.3671 38.8921 34.9522 38.8922 35.5432C38.8923 36.1341 38.776 36.7193 38.55 37.2653C38.3239 37.8113 37.9925 38.3075 37.5748 38.7254C37.157 39.1433 36.6609 39.4749 36.115 39.7011C35.5691 39.9274 34.9839 40.0438 34.393 40.0439C33.1995 40.0439 32.0549 39.5698 31.211 38.7259C30.3671 37.882 29.893 36.7374 29.893 35.5439C29.893 34.3505 30.3671 33.2059 31.211 32.362C32.0549 31.5181 33.1995 31.0439 34.393 31.0439M42.268 25.7939C41.7707 25.7939 41.2938 25.9915 40.9422 26.3431C40.5905 26.6948 40.393 27.1717 40.393 27.6689C40.393 28.1662 40.5905 28.6431 40.9422 28.9948C41.2938 29.3464 41.7707 29.5439 42.268 29.5439C42.7653 29.5439 43.2422 29.3464 43.5938 28.9948C43.9454 28.6431 44.143 28.1662 44.143 27.6689C44.143 27.1717 43.9454 26.6948 43.5938 26.3431C43.2422 25.9915 42.7653 25.7939 42.268 25.7939Z" fill="#34166C"/>
</svg>
