<svg width="50" height="50" viewBox="0 0 70 70" fill="none" xmlns="http://www.w3.org/2000/svg">
<path d="M34.9136 69.1523C15.9454 69.1523 0.609375 53.8163 0.609375 34.8481C0.609375 15.8799 15.9454 0.543945 34.9136 0.543945C53.8818 0.543945 69.2177 15.8799 69.2177 34.8481C69.2177 53.8163 53.8818 69.1523 34.9136 69.1523ZM34.9136 4.57973C18.165 4.57973 4.64516 18.0996 4.64516 34.8481C4.64516 51.5966 18.165 65.1165 34.9136 65.1165C51.6621 65.1165 65.182 51.5966 65.182 34.8481C65.182 18.0996 51.6621 4.57973 34.9136 4.57973Z" fill="#34166C"/>
<path d="M23.7344 20.3564C22.889 20.3564 22.0782 20.6923 21.4805 21.29C20.8827 21.8878 20.5469 22.6986 20.5469 23.5439C20.5469 24.3893 20.8827 25.2001 21.4805 25.7978C22.0782 26.3956 22.889 26.7314 23.7344 26.7314C24.5798 26.7314 25.3905 26.3956 25.9883 25.7978C26.5861 25.2001 26.9219 24.3893 26.9219 23.5439C26.9219 22.6986 26.5861 21.8878 25.9883 21.29C25.3905 20.6923 24.5798 20.3564 23.7344 20.3564ZM20.7344 29.3564C20.6846 29.3564 20.637 29.3762 20.6018 29.4114C20.5666 29.4465 20.5469 29.4942 20.5469 29.5439V49.0439C20.5469 49.1474 20.6309 49.2314 20.7344 49.2314H26.7344C26.7841 49.2314 26.8318 49.2117 26.867 49.1765C26.9021 49.1414 26.9219 49.0937 26.9219 49.0439V29.5439C26.9219 29.4942 26.9021 29.4465 26.867 29.4114C26.8318 29.3762 26.7841 29.3564 26.7344 29.3564H20.7344ZM30.4844 29.3564C30.4346 29.3564 30.387 29.3762 30.3518 29.4114C30.3166 29.4465 30.2969 29.4942 30.2969 29.5439V49.0439C30.2969 49.1474 30.3809 49.2314 30.4844 49.2314H36.4844C36.5341 49.2314 36.5818 49.2117 36.617 49.1765C36.6521 49.1414 36.6719 49.0937 36.6719 49.0439V38.5439C36.6719 37.798 36.9682 37.0827 37.4956 36.5552C38.0231 36.0278 38.7385 35.7314 39.4844 35.7314C40.2303 35.7314 40.9457 36.0278 41.4731 36.5552C42.0006 37.0827 42.2969 37.798 42.2969 38.5439V49.0439C42.2969 49.1474 42.3809 49.2314 42.4844 49.2314H48.4844C48.5341 49.2314 48.5818 49.2117 48.617 49.1765C48.6521 49.1414 48.6719 49.0937 48.6719 49.0439V36.1139C48.6719 32.4734 45.5069 29.6264 41.8844 29.9549C40.7635 30.057 39.6657 30.3344 38.6309 30.7769L36.6719 31.6169V29.5439C36.6719 29.4942 36.6521 29.4465 36.617 29.4114C36.5818 29.3762 36.5341 29.3564 36.4844 29.3564H30.4844Z" fill="#34166C"/>
</svg>
