<svg width="42" height="42" viewBox="0 0 42 42" fill="none" xmlns="http://www.w3.org/2000/svg">
<g clip-path="url(#clip0_120_3352)">
<path d="M21.0051 5.93797C22.6448 5.93797 23.9741 4.60871 23.9741 2.96898C23.9741 1.32926 22.6448 0 21.0051 0C19.3654 0 18.0361 1.32926 18.0361 2.96898C18.0361 4.60871 19.3654 5.93797 21.0051 5.93797Z" fill="black"/>
<path d="M11.9866 8.35154C13.6263 8.35154 14.9555 7.02228 14.9555 5.38256C14.9555 3.74283 13.6263 2.41357 11.9866 2.41357C10.3468 2.41357 9.01758 3.74283 9.01758 5.38256C9.01758 7.02228 10.3468 8.35154 11.9866 8.35154Z" fill="#282828"/>
<path d="M5.38207 14.956C7.02179 14.956 8.35105 13.6268 8.35105 11.987C8.35105 10.3473 7.02179 9.01807 5.38207 9.01807C3.74234 9.01807 2.41309 10.3473 2.41309 11.987C2.41309 13.6268 3.74234 14.956 5.38207 14.956Z" fill="#494949"/>
<path d="M2.96898 23.9741C4.60871 23.9741 5.93797 22.6448 5.93797 21.0051C5.93797 19.3654 4.60871 18.0361 2.96898 18.0361C1.32926 18.0361 0 19.3654 0 21.0051C0 22.6448 1.32926 23.9741 2.96898 23.9741Z" fill="#686868"/>
<path d="M5.38207 32.9819C7.02179 32.9819 8.35105 31.6527 8.35105 30.0129C8.35105 28.3732 7.02179 27.0439 5.38207 27.0439C3.74234 27.0439 2.41309 28.3732 2.41309 30.0129C2.41309 31.6527 3.74234 32.9819 5.38207 32.9819Z" fill="#828282"/>
<path d="M11.9866 39.5864C13.6263 39.5864 14.9555 38.2571 14.9555 36.6174C14.9555 34.9777 13.6263 33.6484 11.9866 33.6484C10.3468 33.6484 9.01758 34.9777 9.01758 36.6174C9.01758 38.2571 10.3468 39.5864 11.9866 39.5864Z" fill="#A0A0A0"/>
<path d="M21.0051 42C22.6448 42 23.9741 40.6707 23.9741 39.031C23.9741 37.3913 22.6448 36.062 21.0051 36.062C19.3654 36.062 18.0361 37.3913 18.0361 39.031C18.0361 40.6707 19.3654 42 21.0051 42Z" fill="#B7B7B7"/>
<path d="M30.0129 39.5864C31.6527 39.5864 32.9819 38.2571 32.9819 36.6174C32.9819 34.9777 31.6527 33.6484 30.0129 33.6484C28.3732 33.6484 27.0439 34.9777 27.0439 36.6174C27.0439 38.2571 28.3732 39.5864 30.0129 39.5864Z" fill="#C6C6C6"/>
<path d="M36.6174 32.9819C38.2571 32.9819 39.5864 31.6527 39.5864 30.0129C39.5864 28.3732 38.2571 27.0439 36.6174 27.0439C34.9777 27.0439 33.6484 28.3732 33.6484 30.0129C33.6484 31.6527 34.9777 32.9819 36.6174 32.9819Z" fill="#D8D8D8"/>
<path d="M39.0315 23.9741C40.6712 23.9741 42.0005 22.6448 42.0005 21.0051C42.0005 19.3654 40.6712 18.0361 39.0315 18.0361C37.3918 18.0361 36.0625 19.3654 36.0625 21.0051C36.0625 22.6448 37.3918 23.9741 39.0315 23.9741Z" fill="#DEDFE0"/>
<path d="M36.6174 14.956C38.2571 14.956 39.5864 13.6268 39.5864 11.987C39.5864 10.3473 38.2571 9.01807 36.6174 9.01807C34.9777 9.01807 33.6484 10.3473 33.6484 11.987C33.6484 13.6268 34.9777 14.956 36.6174 14.956Z" fill="#EFEFEF"/>
<path d="M30.0129 8.35154C31.6527 8.35154 32.9819 7.02228 32.9819 5.38256C32.9819 3.74283 31.6527 2.41357 30.0129 2.41357C28.3732 2.41357 27.0439 3.74283 27.0439 5.38256C27.0439 7.02228 28.3732 8.35154 30.0129 8.35154Z" fill="#F9F9F9"/>
</g>
<defs>
<clipPath id="clip0_120_3352">
<rect width="42" height="42" fill="white"/>
</clipPath>
</defs>
</svg>
