<svg width="81" height="80" viewBox="0 0 101 100" fill="none" xmlns="http://www.w3.org/2000/svg">
<g clip-path="url(#clip0_243_1562)">
<path d="M25.5 0C22.1848 0 19.0054 1.31696 16.6612 3.66117C14.317 6.00537 13 9.18479 13 12.5V87.5C13 90.8152 14.317 93.9946 16.6612 96.3388C19.0054 98.683 22.1848 100 25.5 100H75.5C78.8152 100 81.9946 98.683 84.3388 96.3388C86.683 93.9946 88 90.8152 88 87.5V12.5C88 9.18479 86.683 6.00537 84.3388 3.66117C81.9946 1.31696 78.8152 0 75.5 0L25.5 0ZM25.5 6.25H75.5C77.1576 6.25 78.7473 6.90848 79.9194 8.08058C81.0915 9.25268 81.75 10.8424 81.75 12.5V87.5C81.75 89.1576 81.0915 90.7473 79.9194 91.9194C78.7473 93.0915 77.1576 93.75 75.5 93.75H25.5C23.8424 93.75 22.2527 93.0915 21.0806 91.9194C19.9085 90.7473 19.25 89.1576 19.25 87.5V12.5C19.25 10.8424 19.9085 9.25268 21.0806 8.08058C22.2527 6.90848 23.8424 6.25 25.5 6.25Z" fill="url(#paint0_linear_243_1562)"/>
<path d="M29.2674 75.5438C28.0456 75.0623 27.0623 74.1194 26.5299 72.9188C25.3112 70.4938 25.7174 68.0688 27.0299 66.0313C28.2674 64.1126 30.3174 62.4813 32.6362 61.1126C35.5737 59.4476 38.6783 58.0964 41.8987 57.0813C44.3955 52.5828 46.6122 47.9344 48.5362 43.1626C47.3896 40.5545 46.4898 37.8448 45.8487 35.0688C45.3112 32.5688 45.1049 30.0938 45.5612 27.9688C46.0299 25.7563 47.2737 23.7688 49.6237 22.8251C50.8237 22.3438 52.1237 22.0751 53.3862 22.3438C54.0212 22.479 54.6183 22.7539 55.1339 23.1485C55.6496 23.543 56.0709 24.0475 56.3674 24.6251C56.9174 25.6501 57.1174 26.8501 57.1612 27.9876C57.2049 29.1563 57.0862 30.4563 56.8674 31.8251C56.3424 35.0126 55.1799 38.9126 53.6174 43.0376C55.3431 46.7245 57.3928 50.2509 59.7424 53.5751C62.5244 53.358 65.322 53.4629 68.0799 53.8876C70.3549 54.2938 72.6674 55.1063 74.0799 56.7938C74.8299 57.6938 75.2862 58.7938 75.3299 60.0313C75.3737 61.2313 75.0362 62.4188 74.4674 63.5501C73.9748 64.5984 73.2109 65.496 72.2549 66.1501C71.3092 66.7649 70.1941 67.0667 69.0674 67.0126C66.9987 66.9251 64.9799 65.7876 63.2362 64.4063C61.1153 62.6537 59.2047 60.6612 57.5424 58.4688C53.3156 58.9469 49.1391 59.796 45.0612 61.0063C43.1917 64.3189 41.0577 67.475 38.6799 70.4438C36.8674 72.6313 34.8799 74.5376 32.8924 75.3626C31.7494 75.8749 30.4558 75.9396 29.2674 75.5438ZM37.8862 63.6626C36.8445 64.1418 35.8883 64.6376 35.0174 65.1501C32.9674 66.3626 31.6362 67.5438 30.9737 68.5688C30.3862 69.4751 30.3737 70.1313 30.7237 70.8251C30.7903 70.9584 30.8445 71.0501 30.8862 71.1001L31.1049 71.0251C31.9612 70.6751 33.3237 69.5563 35.0737 67.4501C36.0702 66.2326 37.0088 64.9686 37.8862 63.6626ZM48.1362 55.3501C50.2236 54.8649 52.3294 54.4625 54.4487 54.1438C53.3123 52.4013 52.2488 50.6123 51.2612 48.7813C50.2803 50.9973 49.2382 53.1856 48.1362 55.3438V55.3501ZM63.4237 58.1626C64.3653 59.1793 65.2716 60.0334 66.1424 60.7251C67.6424 61.9126 68.6862 62.3063 69.2549 62.3251C69.4073 62.3489 69.5632 62.3155 69.6924 62.2313C69.9539 62.0275 70.1566 61.7579 70.2799 61.4501C70.5012 61.069 70.6277 60.6403 70.6487 60.2001C70.6423 60.0539 70.5848 59.9145 70.4862 59.8063C70.1612 59.4188 69.2362 58.8563 67.2487 58.5001C65.9841 58.2918 64.7053 58.1811 63.4237 58.1688V58.1626ZM50.9862 36.2501C51.5075 34.5521 51.9249 32.8239 52.2362 31.0751C52.4278 29.9001 52.507 28.9313 52.4737 28.1688C52.4769 27.748 52.4093 27.3297 52.2737 26.9313C51.9607 26.9685 51.6552 27.0528 51.3674 27.1813C50.8237 27.4001 50.3799 27.8438 50.1424 28.9501C49.8924 30.1501 49.9549 31.8813 50.4299 34.0876C50.5799 34.7834 50.7674 35.5043 50.9924 36.2501H50.9862Z" fill="url(#paint1_linear_243_1562)"/>
</g>
<defs>
<linearGradient id="paint0_linear_243_1562" x1="89.9181" y1="4.92391" x2="4.41224" y2="43.0837" gradientUnits="userSpaceOnUse">
<stop offset="0.436" stop-color="#34166C"/>
<stop offset="0.767964" stop-color="#3C1593"/>
<stop offset="1" stop-color="#441BA1"/>
</linearGradient>
<linearGradient id="paint1_linear_243_1562" x1="76.6005" y1="24.8747" x2="24.6213" y2="53.4776" gradientUnits="userSpaceOnUse">
<stop offset="0.436" stop-color="#34166C"/>
<stop offset="0.767964" stop-color="#3C1593"/>
<stop offset="1" stop-color="#441BA1"/>
</linearGradient>
<clipPath id="clip0_243_1562">
<rect width="100" height="100" fill="white" transform="translate(0.5)"/>
</clipPath>
</defs>
</svg>
