<svg width="404" height="249" viewBox="0 0 404 249" fill="none" xmlns="http://www.w3.org/2000/svg">
<mask id="path-1-inside-1_253_174" fill="white">
<path fill-rule="evenodd" clip-rule="evenodd" d="M86.9289 127.424C83.0237 123.519 83.0237 117.188 86.9289 113.282L115.66 84.5518V49.4327C115.66 43.9099 120.137 39.4327 125.66 39.4327H160.779L195.282 4.92893C199.188 1.02369 205.519 1.02369 209.424 4.92893L243.928 39.4327H278.894C284.417 39.4327 288.894 43.9099 288.894 49.4327V84.3988L317.778 113.282C321.683 117.188 321.683 123.519 317.778 127.424L288.894 156.308V202.668C288.894 208.19 284.417 212.668 278.894 212.668H232.535L209.424 235.778C205.519 239.683 199.188 239.683 195.282 235.778L172.172 212.668H125.66C120.137 212.668 115.66 208.19 115.66 202.668V156.155L86.9289 127.424Z"/>
</mask>
<path d="M86.9289 113.282L69.2513 95.6047L69.2513 95.6047L86.9289 113.282ZM86.9289 127.424L69.2513 145.102L69.2513 145.102L86.9289 127.424ZM115.66 84.5518L133.337 102.229L140.66 94.9071V84.5518H115.66ZM160.779 39.4327V64.4327H171.134L178.456 57.1104L160.779 39.4327ZM195.282 4.92893L177.605 -12.7487L177.605 -12.7487L195.282 4.92893ZM209.424 4.92893L191.747 22.6066L191.747 22.6066L209.424 4.92893ZM243.928 39.4327L226.251 57.1104L233.573 64.4327H243.928V39.4327ZM288.894 84.3988H263.894V94.7542L271.217 102.077L288.894 84.3988ZM288.894 156.308L271.217 138.63L263.894 145.953V156.308H288.894ZM232.535 212.668V187.668H222.179L214.857 194.99L232.535 212.668ZM172.172 212.668L189.85 194.99L182.527 187.668H172.172V212.668ZM115.66 156.155H140.66V145.8L133.337 138.477L115.66 156.155ZM69.2513 95.6047C55.5829 109.273 55.5829 131.434 69.2513 145.102L104.607 109.747C110.464 115.605 110.464 125.102 104.607 130.96L69.2513 95.6047ZM97.9818 66.8741L69.2513 95.6047L104.607 130.96L133.337 102.229L97.9818 66.8741ZM140.66 84.5518V49.4327H90.6595V84.5518H140.66ZM125.66 14.4327C106.33 14.4327 90.6595 30.1027 90.6595 49.4327H140.66C140.66 57.717 133.944 64.4327 125.66 64.4327V14.4327ZM125.66 64.4327H160.779V14.4327H125.66V64.4327ZM177.605 -12.7487L143.101 21.7551L178.456 57.1104L212.96 22.6066L177.605 -12.7487ZM227.102 -12.7487C213.434 -26.4171 191.273 -26.4171 177.605 -12.7487L212.96 22.6066C207.102 28.4645 197.605 28.4645 191.747 22.6066L227.102 -12.7487ZM261.606 21.7551L227.102 -12.7487L191.747 22.6066L226.251 57.1104L261.606 21.7551ZM243.928 64.4327H278.894V14.4327H243.928V64.4327ZM313.894 49.4327C313.894 30.1028 298.224 14.4327 278.894 14.4327V64.4327C270.61 64.4327 263.894 57.717 263.894 49.4327H313.894ZM263.894 49.4327V84.3988H313.894V49.4327H263.894ZM335.456 95.6047L306.572 66.7212L271.217 102.077L300.1 130.96L335.456 95.6047ZM335.456 145.102C349.124 131.434 349.124 109.273 335.456 95.6047L300.1 130.96C294.242 125.102 294.242 115.605 300.1 109.747L335.456 145.102ZM306.572 173.986L335.456 145.102L300.1 109.747L271.217 138.63L306.572 173.986ZM263.894 156.308V202.668H313.894V156.308H263.894ZM278.894 237.668C298.224 237.668 313.894 221.998 313.894 202.668H263.894C263.894 194.383 270.61 187.668 278.894 187.668V237.668ZM278.894 187.668H232.535V237.668H278.894V187.668ZM227.102 253.456L250.212 230.345L214.857 194.99L191.747 218.1L227.102 253.456ZM177.605 253.456C191.273 267.124 213.434 267.124 227.102 253.456L191.747 218.1C197.605 212.242 207.102 212.242 212.96 218.1L177.605 253.456ZM154.494 230.345L177.605 253.456L212.96 218.1L189.85 194.99L154.494 230.345ZM172.172 187.668H125.66V237.668H172.172V187.668ZM90.6595 202.668C90.6595 221.998 106.33 237.668 125.66 237.668V187.668C133.944 187.668 140.66 194.383 140.66 202.668H90.6595ZM140.66 202.668V156.155H90.6595V202.668H140.66ZM69.2513 145.102L97.9818 173.833L133.337 138.477L104.607 109.747L69.2513 145.102Z" fill="#E71B7C" mask="url(#path-1-inside-1_253_174)"/>
<path d="M3.70361 169.802L363.703 1.93145L355.193 52.7929L399.625 78.9676L39.6262 246.838L50.7825 194.742L3.70361 169.802Z" fill="#36CF5A"/>
<path d="M126.064 153.411C126.875 155.151 127.209 156.932 127.065 158.753C126.936 160.535 126.259 162.241 125.033 163.872C123.822 165.462 122.047 166.803 119.709 167.893L115.753 169.738L120.279 179.445L112.286 183.172L98.878 154.42L110.828 148.847C113.139 147.77 115.287 147.265 117.271 147.332C119.283 147.387 121.032 147.945 122.52 149.006C124.008 150.066 125.189 151.535 126.064 153.411ZM115.967 161.893C118.224 160.84 118.871 159.281 117.907 157.214C116.931 155.121 115.314 154.6 113.058 155.653L109.876 157.136L112.786 163.376L115.967 161.893ZM137.421 148.512C137.71 146.789 138.315 145.248 139.238 143.891C140.161 142.534 141.357 141.513 142.825 140.828L146.8 149.352L144.557 150.398C142.817 151.21 141.683 152.152 141.158 153.225C140.632 154.297 140.762 155.677 141.548 157.362L146.207 167.354L138.214 171.082L127.545 148.202L135.538 144.475L137.421 148.512ZM172.857 140.677C173.148 141.303 173.399 141.947 173.609 142.61L158.478 149.666C159.143 150.879 159.921 151.658 160.81 152.005C161.715 152.311 162.643 152.243 163.594 151.799C164.926 151.178 165.599 150.136 165.612 148.673L174.136 144.698C174.518 146.44 174.484 148.177 174.034 149.91C173.598 151.602 172.771 153.164 171.551 154.593C170.33 156.023 168.782 157.175 166.906 158.05C164.65 159.102 162.416 159.565 160.205 159.437C158.021 159.297 156.014 158.578 154.184 157.279C152.381 155.969 150.921 154.117 149.806 151.724C148.69 149.331 148.216 147.037 148.383 144.84C148.538 142.617 149.263 140.623 150.56 138.86C151.883 137.084 153.687 135.664 155.971 134.599C158.228 133.547 160.442 133.077 162.613 133.19C164.784 133.303 166.765 134.001 168.555 135.285C170.333 136.542 171.766 138.339 172.857 140.677ZM163.768 142.482C163.312 141.504 162.63 140.894 161.724 140.655C160.806 140.388 159.857 140.483 158.878 140.94C157.899 141.396 157.224 142.042 156.852 142.877C156.468 143.686 156.421 144.651 156.713 145.773L163.768 142.482ZM200.717 113.833C203.599 112.489 206.261 112.307 208.704 113.286C211.174 114.253 213.113 116.245 214.52 119.263L220.739 132.6L212.745 136.327L207.021 124.051C206.45 122.828 205.667 122.035 204.67 121.672C203.673 121.309 202.59 121.4 201.421 121.945C200.252 122.491 199.486 123.262 199.123 124.258C198.761 125.255 198.864 126.365 199.435 127.589L205.159 139.865L197.166 143.592L191.441 131.316C190.871 130.093 190.087 129.299 189.09 128.937C188.121 128.561 187.052 128.646 185.883 129.191C184.686 129.749 183.907 130.526 183.544 131.523C183.181 132.52 183.285 133.63 183.856 134.853L189.58 147.129L181.586 150.857L170.917 127.977L178.911 124.25L180.318 127.268C180.569 125.959 181.118 124.76 181.967 123.669C182.83 122.538 183.995 121.63 185.464 120.946C187.149 120.16 188.816 119.829 190.463 119.955C192.138 120.068 193.666 120.613 195.049 121.59C195.281 119.959 195.886 118.452 196.864 117.07C197.828 115.66 199.113 114.581 200.717 113.833ZM217.498 103.674C216.084 104.334 214.765 104.485 213.54 104.13C212.329 103.734 211.451 102.952 210.906 101.783C210.348 100.587 210.307 99.3977 210.782 98.2162C211.284 97.0219 212.242 96.0952 213.656 95.4359C215.043 94.7893 216.342 94.6637 217.552 95.0592C218.79 95.442 219.688 96.2315 220.245 97.4278C220.791 98.597 220.812 99.7786 220.31 100.973C219.822 102.127 218.885 103.028 217.498 103.674ZM222.443 103.95L233.112 126.83L225.118 130.558L214.449 107.678L222.443 103.95ZM250.405 90.9113L261.074 113.791L253.04 117.538L251.518 114.275C251.32 115.625 250.775 116.905 249.883 118.116C248.978 119.299 247.751 120.252 246.201 120.975C243.537 122.217 241.024 122.33 238.663 121.312C236.316 120.255 234.439 118.217 233.032 115.199L226.832 101.904L234.785 98.1952L240.509 110.471C241.118 111.776 241.939 112.651 242.974 113.095C244.023 113.5 245.119 113.436 246.261 112.903C247.43 112.358 248.183 111.56 248.521 110.509C248.845 109.431 248.703 108.239 248.095 106.934L242.371 94.6579L250.405 90.9113ZM284.754 74.646C287.636 73.3021 290.298 73.1198 292.741 74.0992C295.211 75.0659 297.15 77.0583 298.557 80.0763L304.776 93.4126L296.782 97.1401L291.058 84.8641C290.487 83.6406 289.704 82.8475 288.707 82.4847C287.71 82.122 286.627 82.2132 285.458 82.7583C284.289 83.3035 283.523 84.0745 283.16 85.0711C282.798 86.0678 282.901 87.1779 283.472 88.4015L289.196 100.677L281.203 104.405L275.478 92.129C274.908 90.9054 274.124 90.1123 273.128 89.7495C272.158 89.3741 271.089 89.4589 269.92 90.0041C268.723 90.562 267.944 91.3393 267.581 92.336C267.218 93.3326 267.322 94.4428 267.893 95.6663L273.617 107.942L265.623 111.67L254.954 88.79L262.948 85.0625L264.355 88.0805C264.606 86.772 265.155 85.5724 266.004 84.4816C266.867 83.3509 268.032 82.4433 269.501 81.7586C271.186 80.9726 272.853 80.6423 274.5 80.7678C276.175 80.8807 277.703 81.4258 279.086 82.403C279.318 80.772 279.923 79.2652 280.901 77.8826C281.865 76.4729 283.15 75.394 284.754 74.646Z" fill="white"/>
<path d="M314 63L316.245 69.9098L323.511 69.9098L317.633 74.1803L319.878 81.0902L314 76.8197L308.122 81.0902L310.367 74.1803L304.489 69.9098L311.755 69.9098L314 63Z" fill="#FF6B00"/>
<path d="M339 51L341.245 57.9098L348.511 57.9098L342.633 62.1803L344.878 69.0902L339 64.8197L333.122 69.0902L335.367 62.1803L329.489 57.9098L336.755 57.9098L339 51Z" fill="#FF6B00"/>
<path d="M88.0637 168.032L90.2867 174.949L97.5521 174.972L91.6607 179.224L93.8838 186.141L88.0196 181.852L82.1281 186.103L84.3953 179.201L78.5311 174.911L85.7965 174.935L88.0637 168.032Z" fill="#FF6B00"/>
<path d="M64.8064 178.163L67.0515 185.073L74.317 185.073L68.4391 189.343L70.6842 196.253L64.8064 191.983L58.9285 196.253L61.1737 189.343L55.2958 185.073L62.5613 185.073L64.8064 178.163Z" fill="#FF6B00"/>
</svg>
