<svg width="49" height="50" viewBox="0 0 69 70" fill="none" xmlns="http://www.w3.org/2000/svg">
<path d="M34.3042 69.1523C15.336 69.1523 0 53.8163 0 34.8481C0 15.8799 15.336 0.543945 34.3042 0.543945C53.2724 0.543945 68.6084 15.8799 68.6084 34.8481C68.6084 53.8163 53.2724 69.1523 34.3042 69.1523ZM34.3042 4.57973C17.5557 4.57973 4.03579 18.0996 4.03579 34.8481C4.03579 51.5966 17.5557 65.1165 34.3042 65.1165C51.0527 65.1165 64.5726 51.5966 64.5726 34.8481C64.5726 18.0996 51.0527 4.57973 34.3042 4.57973Z" fill="#34166C"/>
<g clip-path="url(#clip0_243_2160)">
<mask id="mask0_243_2160" style="mask-type:luminance" maskUnits="userSpaceOnUse" x="21" y="21" width="28" height="29">
<path d="M21 21.5439H49V49.5439H21V21.5439Z" fill="white"/>
</mask>
<g mask="url(#mask0_243_2160)">
<path d="M43.05 22.856H47.344L37.964 33.604L49 48.232H40.36L33.588 39.362L25.848 48.232H21.55L31.582 36.732L21 22.858H29.86L35.972 30.964L43.05 22.856ZM41.54 45.656H43.92L28.56 25.298H26.008L41.54 45.656Z" fill="#34166C"/>
</g>
</g>
<defs>
<clipPath id="clip0_243_2160">
<rect width="28" height="28" fill="white" transform="translate(21 21.5439)"/>
</clipPath>
</defs>
</svg>
